<?xml version="1.0" standalone="no"?>
<!DOCTYPE svg PUBLIC "-//W3C//DTD SVG 20010904//EN"
 "http://www.w3.org/TR/2001/REC-SVG-20010904/DTD/svg10.dtd">
<svg version="1.0" xmlns="http://www.w3.org/2000/svg"
 width="1800.000000pt" height="1800.000000pt" viewBox="0 0 1800.000000 1800.000000"
 preserveAspectRatio="xMidYMid meet">
<metadata>
Created by potrace 1.14, written by Peter Selinger 2001-2017
</metadata>
<g transform="translate(0.000000,1800.000000) scale(0.100000,-0.100000)"
fill="#000000" stroke="none">
<path d="M0 9000 l0 -9000 9000 0 9000 0 0 9000 0 9000 -9000 0 -9000 0 0
-9000z m7930 7920 c188 -14 497 -49 615 -70 61 -11 160 -29 220 -40 316 -57
603 -130 925 -237 231 -76 324 -112 575 -216 353 -147 810 -393 1130 -607 55
-37 123 -82 150 -100 89 -60 315 -231 434 -328 654 -536 1116 -1072 1386
-1611 110 -220 145 -310 145 -380 0 -91 21 -79 47 27 41 158 46 254 39 710 -3
235 -10 456 -15 492 -5 36 -18 137 -30 225 -43 321 -133 700 -242 1017 -18 51
-35 98 -39 103 -4 6 -13 28 -20 50 -23 71 -129 297 -200 424 l-40 73 117 -110
c278 -260 324 -308 484 -507 280 -348 509 -733 667 -1120 138 -339 239 -654
316 -980 60 -254 74 -325 96 -470 11 -77 22 -151 24 -165 12 -64 26 -197 36
-325 5 -77 12 -171 15 -210 17 -209 17 -440 1 -650 -20 -260 -40 -433 -61
-530 -9 -38 -18 -82 -21 -97 -10 -46 19 -34 64 25 90 117 213 373 292 607 46
137 63 200 99 380 l27 135 13 -105 c37 -316 37 -599 -1 -880 -37 -276 -107
-465 -270 -730 -46 -74 -71 -106 -86 -108 -44 -7 -23 -30 31 -36 28 -4 135
-15 237 -26 375 -42 680 -142 1020 -335 66 -38 119 -70 117 -71 -1 -1 -49 10
-107 26 -96 27 -239 51 -460 79 -142 18 -391 14 -516 -9 -60 -11 -132 -26
-161 -35 -44 -13 -67 -14 -143 -4 -96 11 -120 8 -120 -15 0 -9 16 -16 48 -21
121 -17 275 -68 428 -141 309 -147 756 -501 939 -743 69 -91 126 -193 170
-304 54 -137 53 -138 -36 -52 -132 126 -387 278 -599 357 -99 37 -249 68 -330
68 -35 0 -52 5 -66 21 -93 106 -273 229 -356 244 -59 11 -46 -9 36 -54 249
-136 508 -457 637 -790 50 -128 89 -309 96 -439 5 -112 -7 -264 -27 -342 -5
-19 -12 -48 -16 -65 -6 -30 -7 -29 -24 20 -30 87 -172 311 -263 414 -91 104
-144 132 -72 38 37 -48 41 -71 25 -140 -5 -23 -16 -79 -25 -125 -39 -203 -221
-552 -460 -877 l-80 -110 -6 95 c-9 124 -22 172 -62 213 -46 49 -121 64 -240
47 -96 -13 -240 -45 -272 -59 -11 -5 -44 -17 -74 -27 -51 -16 -157 -63 -191
-84 -8 -5 -28 -17 -45 -26 -132 -71 -285 -207 -361 -322 l-42 -61 -53 57
c-144 152 -333 384 -455 557 -287 407 -451 758 -540 1155 -13 58 -28 124 -34
148 -18 77 -12 203 13 279 48 139 202 339 461 598 190 190 236 233 379 354 48
41 87 78 87 83 0 17 -21 6 -85 -43 l-67 -51 -126 125 c-118 117 -186 180 -272
254 -27 24 -198 158 -345 271 -65 50 -353 243 -410 276 -16 9 -55 32 -85 51
-111 67 -263 152 -480 266 -61 31 -293 141 -335 157 -22 8 -45 19 -51 24 -6 4
-37 17 -69 28 -32 11 -63 24 -69 29 -6 4 -29 14 -51 21 -22 7 -58 21 -80 31
-45 21 -151 58 -268 94 -42 13 -82 27 -88 31 -15 9 -166 50 -299 80 -58 13
-130 31 -160 39 -30 8 -109 21 -175 30 -66 9 -138 20 -160 26 -94 22 -422 33
-623 21 -108 -6 -213 -16 -232 -21 -19 -6 -80 -17 -135 -25 -55 -9 -111 -18
-125 -21 -14 -3 -7 2 15 10 22 8 54 22 70 29 17 8 59 22 95 31 36 8 74 20 85
25 20 10 181 44 280 59 39 6 43 9 18 10 -42 1 -231 -27 -291 -44 -26 -7 -89
-25 -141 -39 -52 -15 -99 -30 -105 -35 -6 -5 -34 -16 -62 -25 -52 -17 -273
-125 -355 -174 -49 -29 -199 -134 -238 -167 -279 -231 -501 -506 -648 -800
-25 -49 -49 -99 -55 -109 -35 -66 -89 -256 -109 -386 l-22 -145 21 -126 c19
-112 32 -162 57 -221 6 -15 3 -16 -22 -9 -104 30 -243 143 -307 249 -146 242
-146 653 -1 1064 19 53 39 105 44 115 5 10 30 61 56 113 184 372 554 735 922
905 54 25 112 53 128 61 17 8 43 18 59 22 16 5 32 14 34 21 9 27 -100 -11
-278 -96 -80 -38 -95 -47 -235 -139 -167 -110 -389 -319 -498 -471 -19 -27
-64 -66 -112 -97 -135 -89 -239 -211 -338 -396 -130 -245 -163 -361 -154 -554
6 -150 28 -219 105 -328 19 -27 28 -48 22 -48 -27 0 -149 78 -204 130 -148
140 -236 368 -236 611 0 112 38 323 71 396 10 23 19 45 19 48 0 22 92 195 148
280 77 114 247 292 337 352 73 48 213 123 232 123 7 0 13 4 13 9 0 5 14 12 31
16 17 4 28 9 26 12 -16 15 -197 -62 -307 -131 -194 -123 -391 -357 -500 -594
-26 -57 -39 -74 -59 -79 -110 -26 -276 -117 -375 -205 -71 -62 -172 -203 -205
-288 -8 -19 -18 -40 -23 -46 -17 -23 -77 -223 -93 -309 -9 -49 -20 -106 -25
-126 -6 -19 -11 -68 -12 -107 l-2 -72 -27 58 c-76 158 -113 268 -141 422 -5
30 -8 123 -5 205 4 126 10 169 35 267 17 64 35 125 40 135 6 10 34 66 63 125
29 60 77 141 107 180 101 134 252 275 382 356 118 73 316 146 490 181 99 20
151 41 103 41 -12 0 -68 12 -125 26 -156 39 -245 52 -426 64 -254 17 -505 -3
-742 -58 -97 -23 -280 -83 -325 -106 -16 -9 -34 -16 -39 -16 -12 0 -140 -65
-211 -108 -192 -116 -374 -280 -483 -436 -34 -49 -62 -88 -62 -85 0 2 -7 60
-15 129 -20 172 -19 353 5 565 26 225 32 263 74 455 89 403 172 652 315 955
338 710 974 1240 1771 1474 111 33 240 61 405 88 142 24 701 24 860 0 288 -43
462 -90 605 -163 91 -47 132 -88 279 -281 34 -46 70 -83 78 -83 12 0 10 7 -9
33 -13 17 -42 57 -63 87 -138 192 -386 460 -585 633 -300 259 -675 487 -1030
627 -58 22 -119 47 -137 55 -38 17 -172 58 -298 91 -49 13 -104 29 -121 34
-30 10 -270 53 -394 71 -36 5 -138 13 -227 17 l-162 7 70 60 c305 260 727 464
1148 555 52 12 97 23 101 25 11 7 446 64 515 68 127 7 605 5 715 -3z m1435
-5055 c55 -3 116 -8 135 -10 19 -3 94 -12 165 -20 72 -9 162 -22 200 -30 356
-77 433 -97 655 -172 452 -153 939 -385 1424 -679 177 -107 489 -326 661 -463
169 -134 505 -442 505 -461 0 -4 -51 -50 -112 -102 -215 -183 -484 -477 -592
-648 -120 -188 -130 -303 -56 -625 81 -353 234 -688 496 -1088 l104 -158 -24
-57 c-50 -121 -71 -243 -70 -417 0 -136 4 -176 26 -272 45 -188 110 -314 227
-437 82 -84 159 -139 239 -165 101 -34 114 -27 60 32 -18 20 -44 64 -58 99
-22 55 -25 78 -24 178 0 127 20 214 91 399 29 75 49 109 99 167 99 112 235
234 328 292 189 119 455 205 638 206 93 1 98 0 126 -27 59 -57 65 -100 59
-455 -5 -292 -7 -332 -35 -502 -63 -385 -119 -518 -284 -676 -83 -80 -121
-110 -323 -250 -547 -379 -807 -539 -930 -573 -50 -14 -139 -14 -185 -1 -19 5
-55 27 -79 48 l-44 38 32 105 c19 57 40 123 47 147 26 79 10 118 -25 61 -26
-42 -100 -208 -151 -337 -90 -229 -149 -320 -301 -467 -289 -277 -739 -582
-1369 -927 -410 -225 -716 -346 -1230 -488 -63 -18 -144 -40 -180 -50 -163
-46 -518 -127 -794 -180 -93 -19 -252 -40 -487 -66 -71 -8 -145 8 -206 44 -26
16 -82 48 -123 72 -338 196 -713 442 -962 630 -358 271 -806 726 -1096 1113
-294 394 -442 639 -565 942 -65 161 -129 409 -148 575 -15 135 -6 458 16 556
61 276 179 557 375 894 180 310 323 580 385 730 15 36 56 151 91 255 65 190
89 298 139 610 46 284 105 461 176 523 85 75 305 222 333 222 3 0 21 -24 39
-52 76 -120 246 -239 359 -254 l47 -7 -29 84 c-29 85 -50 204 -50 285 0 50 9
54 66 27 l36 -18 42 47 c73 80 128 242 94 276 -15 15 -67 15 -138 2 -29 -6
-55 -9 -56 -7 -9 8 64 198 120 312 184 374 480 709 831 942 151 100 249 148
340 169 113 25 356 53 525 61 74 3 137 8 140 10 2 2 38 2 80 -1 41 -3 120 -8
175 -11z m-2454 -472 c-93 -141 -200 -409 -252 -633 -25 -110 -37 -344 -22
-452 9 -66 9 -68 -18 -94 l-27 -26 -17 33 c-10 19 -23 41 -30 49 -7 8 -20 40
-30 70 -10 30 -21 60 -25 65 -19 23 -30 164 -19 247 5 45 14 87 18 93 4 5 13
30 20 55 27 96 125 289 208 408 62 89 202 242 222 242 6 0 -7 -26 -28 -57z
m-677 -1061 c68 -93 161 -167 253 -202 l42 -16 -61 -89 c-66 -98 -175 -316
-204 -407 l-18 -58 -34 62 c-48 87 -91 200 -108 286 -26 135 -12 425 28 550
l10 34 29 -57 c15 -31 44 -77 63 -103z m1086 0 c0 -33 -47 -134 -89 -192 -24
-33 -31 -37 -41 -26 -6 8 -25 18 -42 21 l-30 7 6 57 c4 31 12 75 19 99 13 49
35 60 125 61 51 1 52 0 52 -27z m-643 -220 c-8 -10 -15 -8 -34 9 l-23 23 22
23 23 24 11 -33 c8 -23 8 -37 1 -46z m-49 -21 c9 -6 0 -18 -35 -46 -26 -21
-66 -54 -87 -74 -46 -42 -41 -30 27 62 47 64 67 76 95 58z m24 -104 c-42 -22
-106 -60 -142 -85 -85 -58 -51 -20 84 94 l100 84 17 -26 17 -27 -76 -40z
m6358 -2665 c75 -102 184 -223 297 -333 l119 -114 -18 -35 c-40 -77 -67 -149
-83 -220 -9 -41 -22 -88 -28 -105 -6 -16 -11 -90 -12 -165 0 -119 3 -141 22
-184 l23 -48 -28 17 c-152 97 -268 242 -316 395 -10 30 -22 64 -27 75 -40 88
-53 433 -24 625 17 116 23 140 33 140 4 0 23 -22 42 -48z m-634 -3038 c93
-400 215 -724 356 -937 21 -32 38 -66 38 -75 0 -32 -89 -200 -148 -279 -83
-111 -156 -188 -294 -305 -142 -122 -208 -168 -348 -241 -161 -85 -294 -132
-560 -200 -286 -73 -359 -88 -617 -126 -172 -26 -431 6 -569 70 l-60 28 4 88
c7 144 -58 471 -140 705 l-35 97 31 7 c42 9 225 69 306 100 227 88 301 121
585 264 411 208 803 442 1100 659 110 80 275 212 294 235 8 9 19 15 24 13 6
-2 20 -48 33 -103z m-2255 -1930 c18 -106 7 -121 -26 -36 -11 29 -23 52 -26
52 -15 0 -19 -34 -9 -72 24 -89 144 -163 346 -214 203 -51 450 -36 828 52 147
34 341 89 444 125 46 16 87 29 90 29 9 0 -201 -115 -258 -142 -336 -154 -495
-203 -880 -269 -101 -17 -400 -23 -473 -9 -134 25 -217 106 -217 212 0 78 58
224 140 355 8 12 17 20 20 17 3 -3 12 -48 21 -100z"/>
<path d="M9162 10522 c-67 -24 -177 -99 -261 -177 -74 -69 -181 -199 -181
-221 0 -22 39 -19 345 27 103 15 541 23 640 10 364 -45 665 -184 950 -438 36
-33 65 -71 89 -120 61 -120 76 -90 26 48 -39 104 -105 216 -184 310 -255 304
-789 546 -1266 574 -88 5 -113 3 -158 -13z m198 -41 c47 -10 139 -31 205 -45
66 -15 129 -31 140 -36 11 -5 48 -16 82 -25 218 -54 493 -205 648 -354 73 -71
159 -171 147 -171 -6 0 -14 5 -17 10 -26 42 -290 198 -390 230 -22 7 -44 16
-50 20 -11 9 -159 55 -245 76 -136 33 -296 49 -500 49 -241 0 -379 -17 -580
-70 -18 -5 0 18 65 82 101 98 192 167 281 211 98 49 96 49 214 23z"/>
<path d="M9640 9149 c-110 -12 -295 -90 -452 -191 -423 -273 -547 -373 -624
-505 -40 -68 -19 -74 52 -16 228 189 438 332 629 428 300 152 446 170 630 78
132 -67 312 -197 385 -280 22 -26 64 -84 93 -130 28 -45 57 -85 64 -87 24 -10
44 24 37 62 -6 39 -65 169 -96 215 -30 43 -11 32 57 -34 35 -34 69 -58 74 -54
29 17 -6 100 -70 170 -51 55 -122 110 -229 175 -235 144 -378 188 -550 169z"/>
<path d="M6665 9039 c-69 -29 -129 -75 -223 -173 -77 -80 -98 -116 -69 -116 6
0 38 20 69 45 32 25 60 45 63 45 3 0 -19 -30 -48 -67 -69 -86 -145 -211 -153
-253 -13 -64 29 -27 151 130 120 156 230 276 273 299 20 11 23 9 34 -16 6 -15
11 -75 11 -133 0 -86 -5 -120 -27 -189 -29 -94 -33 -141 -12 -141 25 0 102 78
129 131 67 136 56 364 -22 433 -32 29 -114 31 -176 5z"/>
<path d="M6338 7769 c-3 -58 31 -218 58 -272 15 -27 15 -30 2 -19 -9 7 -32 52
-52 100 -59 139 -55 131 -55 103 -3 -108 136 -378 221 -429 50 -29 96 -45 113
-38 14 5 13 10 -4 44 -10 21 -43 69 -73 107 -91 117 -155 254 -179 379 -15 81
-26 90 -31 25z"/>
<path d="M10310 7265 c-66 -13 -147 -44 -500 -193 -52 -21 -113 -45 -135 -52
-22 -7 -53 -18 -70 -26 -109 -49 -610 -170 -844 -204 -452 -66 -744 -90 -1107
-90 -227 0 -561 19 -684 40 -377 63 -541 105 -840 215 -41 15 -80 32 -87 37
-7 5 -14 5 -18 -1 -7 -12 62 -47 190 -97 50 -19 93 -38 97 -42 11 -10 -26
-229 -57 -342 -33 -119 -31 -223 4 -271 l23 -30 -45 -192 c-85 -361 -105 -621
-67 -848 35 -202 90 -327 221 -502 148 -197 516 -539 821 -764 122 -90 400
-245 478 -268 14 -4 39 -13 55 -21 27 -12 160 -51 255 -74 102 -25 299 -43
495 -44 411 -2 738 50 1245 197 207 61 561 190 753 276 23 10 80 35 127 56
400 178 556 270 682 404 90 95 145 195 185 336 27 97 28 107 28 335 0 214 -3
249 -28 395 -40 221 -121 527 -183 684 -89 228 -203 472 -262 559 -21 31 -74
110 -117 175 -127 190 -274 319 -402 352 -68 18 -125 18 -213 0z m188 -105 c3
-49 -9 -241 -24 -385 -10 -93 -33 -186 -56 -228 -35 -62 -128 -131 -283 -207
-226 -112 -430 -182 -795 -277 -707 -182 -1581 -231 -2214 -123 -381 65 -734
190 -791 280 -50 79 -57 171 -24 335 10 55 25 142 31 193 7 50 16 92 20 92 4
0 31 -9 60 -19 143 -52 503 -129 703 -150 788 -83 1753 15 2462 248 200 66
210 70 434 177 230 110 274 124 389 121 l85 -2 3 -55z m-955 -2011 c247 -15
472 -53 709 -118 315 -87 649 -277 820 -466 42 -47 108 -145 108 -160 0 -26
-266 -176 -510 -288 -41 -19 -101 -46 -132 -61 -31 -14 -60 -26 -65 -26 -4 0
-21 -7 -38 -16 -16 -9 -59 -27 -95 -41 -36 -14 -105 -40 -155 -60 -49 -19
-119 -44 -155 -55 -36 -11 -69 -24 -75 -28 -5 -4 -21 -11 -35 -15 -14 -3 -74
-22 -135 -40 -378 -115 -587 -161 -910 -201 -132 -16 -536 -18 -655 -4 -183
23 -406 81 -565 148 -185 78 -406 223 -664 436 -73 61 -140 117 -149 123 -14
11 -13 16 9 39 44 48 232 194 344 268 120 80 290 176 400 226 39 18 88 41 110
51 22 10 81 33 130 52 525 199 1078 275 1708 236z"/>
<path d="M14260 6967 c-163 -46 -485 -332 -605 -535 -64 -111 -88 -192 -88
-312 0 -71 4 -113 13 -130 9 -16 14 -60 15 -125 0 -91 -2 -104 -27 -147 -42
-71 -111 -124 -238 -184 -163 -78 -163 -78 -168 -91 -6 -21 42 -15 135 17 160
55 278 144 334 251 31 57 31 168 1 289 -12 47 -22 105 -22 130 0 104 61 255
149 368 45 59 50 62 60 44 21 -39 41 -148 41 -223 0 -91 -17 -151 -59 -214
-33 -49 -38 -65 -19 -65 24 0 77 52 99 97 21 42 24 62 23 158 -1 94 -5 121
-28 185 -43 117 -45 107 33 185 l71 69 0 -36 c0 -56 36 -140 75 -178 32 -31
41 -35 94 -35 48 0 66 5 101 30 71 49 120 139 135 248 7 52 -9 66 -20 17 -11
-49 -53 -151 -77 -187 -13 -18 -41 -42 -64 -53 -112 -55 -191 8 -209 167 l-7
60 79 60 c110 83 210 123 305 123 58 1 69 3 54 12 -29 16 -135 19 -186 5z"/>
</g>
</svg>
